#!OML:ASF E:\emotionWalksFemale\Project 1\Capture day 1\Session 1\Female1.ASF
:FULLY-SPECIFIED
:DEGREES
104
root 7.59158 15.0147 42.1984 173.484 4.40145 182.413
lowerback 0.325967 -0.153432 -0.795031
upperback -3.44116 -0.0850824 -3.9409
thorax -3.7334 0.025394 -3.63144
lowerneck -8.82262 0.837315 1.11735
upperneck 42.1169 6.97197 3.12102
head 16.6057 5.84497 2.98902
rclavicle -3.57812e-015 1.59028e-015
rhumerus -58.7492 22.3275 -107.572
rradius 44.9008
rwrist -5.85419
rhand -3.33083 -61.3242
rfingers 7.12502
rthumb -157.604 -89.9541
lclavicle -3.57812e-015 1.59028e-015
lhumerus -48.1199 22.5774 60.3156
lradius 40.7637
lwrist -6.30107
lhand -12.5507 -31.9941
lfingers 7.12502
lthumb 13.5263 -2.4534
rfemur -1.46666 11.8665 24.3701
rtibia 28.1922
rfoot -25.4241 -25.1496
rtoes 1.96317
lfemur -0.502116 -19.1777 -27.0044
ltibia 30.5128
lfoot -32.224 23.4568
ltoes -14.3485
105
root 7.59166 15.0131 42.2093 173.409 4.56584 182.692
lowerback 0.500309 -0.25003 -0.693637
upperback -3.43325 -0.231399 -3.71934
thorax -3.83109 -0.0564402 -3.45251
lowerneck -8.73381 1.03817 1.2606
upperneck 42.1331 7.32699 3.02176
head 16.6004 6.00459 2.97213
rclavicle -3.18055e-015 -2.22639e-014
rhumerus -58.8423 22.7735 -107.724
rradius 44.8952
rwrist -6.2666
rhand -3.84091 -61.3025
rfingers 7.12502
rthumb -158.093 -89.9177
lclavicle -3.18055e-015 -2.22639e-014
lhumerus -48.2392 22.8172 60.3392
lradius 40.9875
lwrist -6.1663
lhand -12.4809 -31.3905
lfingers 7.12502
lthumb 13.5935 -1.85427
rfemur -1.3549 12.0184 24.7271
rtibia 28.0468
rfoot -25.4282 -25.2762
rtoes 0.937396
lfemur -0.503794 -19.1573 -26.7133
ltibia 30.6598
lfoot -32.2648 23.7176
ltoes -16.1231
106
root 7.59192 15.0156 42.2186 173.322 4.73064 182.802
lowerback 0.704504 -0.312582 -0.777229
upperback -3.3956 -0.332515 -3.55336
thorax -3.91087 -0.10811 -3.22827
lowerneck -8.80524 1.22736 1.48921
upperneck 42.1629 7.64884 2.85066
head 16.6531 6.14411 2.91323
rclavicle 1.59028e-015 -1.59028e-015
rhumerus -58.8228 23.038 -107.661
rradius 44.8388
rwrist -6.30135
rhand -3.71699 -61.2743
rfingers 7.12502
rthumb -157.974 -89.9599
lclavicle 1.59028e-015 -1.59028e-015
lhumerus -48.2723 23.0466 60.4135
lradius 41.1682
lwrist -6.21929
lhand -12.3109 -31.0382
lfingers 7.12502
lthumb 13.7574 -1.51299
rfemur -1.22872 11.9757 24.8483
rtibia 27.8758
rfoot -25.4673 -25.0756
rtoes 0.894126
lfemur -0.475003 -18.9838 -26.5832
ltibia 30.8205
lfoot -32.4486 23.6032
ltoes -16.9954
107
root 7.59162 15.0199 42.2263 173.315 4.86447 182.963
lowerback 0.808298 -0.404618 -0.802042
upperback -3.39273 -0.466698 -3.38076
thorax -3.97112 -0.176888 -3.02881
lowerneck -8.75025 1.44032 1.70535
upperneck 42.1829 8.00043 2.76509
head 16.6644 6.31417 2.89206
rclavicle 0 -5.40694e-014
rhumerus -58.8098 23.1584 -107.49
rradius 44.8099
rwrist -6.05744
rhand -3.24133 -61.4262
rfingers 7.12502
rthumb -157.518 -89.8625
lclavicle 0 -5.40694e-014
lhumerus -48.3484 23.2417 60.4109
lradius 41.3166
lwrist -6.32945
lhand -12.07 -30.9275
lfingers 7.12502
lthumb 13.9896 -1.41824
rfemur -1.19611 11.883 24.9886
rtibia 27.7293
rfoot -25.4775 -24.7849
rtoes 1.20438
lfemur -0.515087 -18.9421 -26.4043
ltibia 30.9598
lfoot -32.7142 23.3386
ltoes -17.0096
108
root 7.58946 15.0218 42.2364 173.426 4.97455 183.2
lowerback 0.855683 -0.473654 -0.698524
upperback -3.41701 -0.562825 -3.2531
thorax -4.02719 -0.230001 -2.95016
lowerneck -8.71907 1.66005 1.98665
upperneck 42.1431 8.25397 2.82788
head 16.6432 6.4676 2.90356
rclavicle -3.57812e-015 6.20208e-014
rhumerus -58.6391 23.0063 -107.183
rradius 44.7094
rwrist -5.74501
rhand -2.75834 -61.9457
rfingers 7.12502
rthumb -157.054 -89.3999
lclavicle -3.57812e-015 6.20208e-014
lhumerus -48.297 23.2724 60.4184
lradius 41.4157
lwrist -6.34733
lhand -12.063 -31
lfingers 7.12502
lthumb 13.9963 -1.49118
rfemur -1.3327 11.9001 25.2053
rtibia 27.629
rfoot -25.3056 -24.7059
rtoes 0.858082
lfemur -0.694889 -19.1094 -26.1401
ltibia 31.0625
lfoot -32.9867 23.2589
ltoes -13.3831
109
root 7.58777 15.0189 42.2457 173.418 5.07077 183.233
lowerback 0.924021 -0.541802 -0.795047
upperback -3.35925 -0.662373 -3.17393
thorax -4.00798 -0.278098 -2.80835
lowerneck -8.73221 1.91957 2.35566
upperneck 42.0637 8.58821 2.74302
head 16.6275 6.6397 2.84646
rclavicle -3.97569e-015 -1.59028e-015
rhumerus -58.4417 22.9439 -106.907
rradius 44.5989
rwrist -5.71907
rhand -2.69832 -62.193
rfingers 7.12502
rthumb -156.997 -89.1597
lclavicle -3.97569e-015 -1.59028e-015
lhumerus -48.2118 23.3268 60.4749
lradius 41.5412
lwrist -6.33081
lhand -11.943 -31.3069
lfingers 7.12502
lthumb 14.1119 -1.80615
rfemur -1.36123 11.8441 25.2215
rtibia 27.5509
rfoot -25.0152 -24.7782
rtoes -0.231447
lfemur -0.737932 -19.2065 -26.1268
ltibia 31.1389
lfoot -33.211 23.342
ltoes -12.8696
110
root 7.5882 15.0148 42.2521 173.316 5.16127 183.13
lowerback 0.969896 -0.603598 -1.01838
upperback -3.24453 -0.754867 -3.13636
thorax -3.91486 -0.318484 -2.63852
lowerneck -8.64671 2.22177 2.68581
upperneck 41.9336 8.98283 2.71254
head 16.5554 6.84064 2.81871
rclavicle 3.18055e-015 1.59028e-015
rhumerus -58.273 22.9345 -106.757
rradius 44.4751
rwrist -6.08398
rhand -3.05776 -61.8791
rfingers 7.12502
rthumb -157.341 -89.431
lclavicle 3.18055e-015 1.59028e-015
lhumerus -48.0436 23.4054 60.5496
lradius 41.5683
lwrist -6.54007
lhand -12.0027 -31.4129
lfingers 7.12502
lthumb 14.0544 -1.90812
rfemur -1.29322 11.7428 25.116
rtibia 27.4955
rfoot -24.7052 -24.9515
rtoes -1.35167
lfemur -0.66898 -19.1563 -26.2584
ltibia 31.1862
lfoot -33.3449 23.3839
ltoes -13.3465
111
root 7.58847 15.0135 42.2598 173.336 5.29675 183.025
lowerback 0.940759 -0.608192 -1.15855
upperback -3.19757 -0.7615 -3.2008
thorax -3.8489 -0.316833 -2.62625
lowerneck -8.50833 2.51776 3.22195
upperneck 41.7731 9.2934 2.75696
head 16.4638 7.053 2.77055
rclavicle -5.56597e-015 1.27222e-014
rhumerus -57.969 22.5212 -106.435
rradius 44.4828
rwrist -6.01521
rhand -2.23654 -62.4713
rfingers 7.12502
rthumb -156.554 -88.9372
lclavicle -5.56597e-015 1.27222e-014
lhumerus -47.7554 23.1621 60.6429
lradius 41.5267
lwrist -6.66945
lhand -12.3205 -31.1905
lfingers 7.12502
lthumb 13.7481 -1.66468
rfemur -1.42439 11.6901 24.9818
rtibia 27.5107
rfoot -24.3225 -25.1971
rtoes -2.56864
lfemur -0.675107 -19.3552 -26.4179
ltibia 31.1768
lfoot -33.5568 23.6069
ltoes -15.2558
112
root 7.5882 15.0157 42.2678 173.442 5.49035 183.069
lowerback 0.819646 -0.560027 -1.04243
upperback -3.15139 -0.688148 -3.30455
thorax -3.73271 -0.283705 -2.80263
lowerneck -8.47862 2.79017 3.91369
upperneck 41.6597 9.55049 2.76365
head 16.4413 7.25933 2.68456
rclavicle -2.98177e-014 7.95139e-014
rhumerus -57.634 22.0497 -106.201
rradius 44.4782
rwrist -6.35672
rhand -2.12213 -62.2548
rfingers 7.12502
rthumb -156.444 -89.1678
lclavicle -2.98177e-014 7.95139e-014
lhumerus -47.4042 22.8788 60.668
lradius 41.5408
lwrist -6.69271
lhand -12.2381 -31.1318
lfingers 7.12502
lthumb 13.8275 -1.61138
rfemur -1.65437 11.7248 25.0041
rtibia 27.5755
rfoot -24.0876 -25.3143
rtoes -3.73821
lfemur -0.74725 -19.6008 -26.3971
ltibia 31.1375
lfoot -33.7899 23.8709
ltoes -13.0817
113
root 7.58647 15.0197 42.274 173.477 5.71213 183.166
lowerback 0.715954 -0.508971 -0.852867
upperback -3.04022 -0.614245 -3.34874
thorax -3.55849 -0.254296 -2.9576
lowerneck -8.41416 3.10659 4.39441
upperneck 41.4683 9.88505 2.8123
head 16.3543 7.46327 2.65289
rclavicle 4.77083e-015 1.43125e-014
rhumerus -57.2641 21.8014 -106.058
rradius 44.2849
rwrist -6.3908
rhand -1.98059 -62.8224
rfingers 7.12502
rthumb -156.308 -88.6177
lclavicle 4.77083e-015 1.43125e-014
lhumerus -47.0769 23.0155 60.6014
lradius 41.4841
lwrist -7.04815
lhand -11.8491 -31.303
lfingers 7.12502
lthumb 14.2024 -1.80857
rfemur -1.747 11.8334 25.0884
rtibia 27.6299
rfoot -24.2532 -25.091
rtoes -3.03117
lfemur -0.803468 -19.3295 -26.2147
ltibia 31.117
lfoot -33.8775 23.6946
ltoes -14.6393
114
root 7.58206 15.0195 42.2821 173.434 5.87934 183.114
lowerback 0.76601 -0.463841 -0.818693
upperback -2.96083 -0.554751 -3.4216
thorax -3.50316 -0.226476 -3.05416
lowerneck -8.20178 3.45307 4.93343
upperneck 41.1353 10.2464 2.81969
head 16.1667 7.67888 2.57479
rclavicle -7.95139e-015 -6.67916e-014
rhumerus -56.9665 21.4765 -105.921
rradius 44.0041
rwrist -6.27025
rhand -1.93967 -63.0088
rfingers 7.12502
rthumb -156.269 -88.4364
lclavicle -7.95139e-015 -6.67916e-014
lhumerus -46.8988 22.461 60.8879
lradius 41.6949
lwrist -6.81082
lhand -11.679 -31.0549
lfingers 7.12502
lthumb 14.3663 -1.57202
rfemur -1.77241 11.851 24.993
rtibia 27.6585
rfoot -24.4578 -24.8681
rtoes -2.28146
lfemur -0.797776 -19.1037 -26.2464
ltibia 31.1302
lfoot -34.0713 23.5069
ltoes -13.2856
115
root 7.57736 15.015 42.2942 173.466 5.97832 183.099
lowerback 0.858773 -0.427806 -0.765132
upperback -2.9386 -0.507072 -3.50678
thorax -3.53203 -0.204472 -3.17457
lowerneck -8.12936 3.74333 5.72883
upperneck 40.9822 10.6117 2.59595
head 16.1536 7.91185 2.38962
rclavicle -2.38542e-015 -2.70347e-014
rhumerus -56.7433 21.0171 -105.779
rradius 43.8563
rwrist -6.31553
rhand -2.24853 -62.5531
rfingers 7.12502
rthumb -156.565 -88.854
lclavicle -2.38542e-015 -2.70347e-014
lhumerus -46.677 22.7256 60.672
lradius 41.5954
lwrist -7.39499
lhand -11.4416 -30.8938
lfingers 7.12502
lthumb 14.595 -1.42731
rfemur -1.93144 11.76 24.931
rtibia 27.6764
rfoot -24.1981 -25.0328
rtoes -3.88368
lfemur -0.886577 -19.1213 -26.2568
ltibia 31.1577
lfoot -34.3013 23.485
ltoes -14.7997
116
root 7.57568 15.0123 42.3047 173.463 6.15356 183.191
lowerback 0.93683 -0.405544 -0.655013
upperback -2.8654 -0.479525 -3.53059
thorax -3.50035 -0.195651 -3.26181
lowerneck -8.12123 4.08455 6.42123
upperneck 40.8591 11.0296 2.4834
head 16.1619 8.15948 2.28444
rclavicle 1.51076e-014 -3.18055e-015
rhumerus -56.5099 20.6998 -105.669
rradius 43.6534
rwrist -6.40383
rhand -2.7017 -61.5762
rfingers 7.12502
rthumb -157 -89.7761
lclavicle 1.51076e-014 -3.18055e-015
lhumerus -46.4295 22.1169 60.9405
lradius 41.6567
lwrist -6.87366
lhand -11.6123 -30.5441
lfingers 7.12502
lthumb 14.4306 -1.06579
rfemur -2.01379 11.7401 25.0292
rtibia 27.686
rfoot -23.834 -25.1498
rtoes -5.22354
lfemur -0.903256 -19.0569 -26.1404
ltibia 31.1694
lfoot -34.3945 23.5391
ltoes -15.8241
117
root 7.57444 15.0129 42.3095 173.438 6.38936 183.204
lowerback 0.970815 -0.372691 -0.614633
upperback -2.81205 -0.436018 -3.57151
thorax -3.46285 -0.175677 -3.32844
lowerneck -7.93333 4.45488 7.09567
upperneck 40.6771 11.5143 2.40005
head 16.0996 8.443 2.18989
rclavicle 2.78299e-015 1.59028e-015
rhumerus -56.3813 20.4765 -105.693
rradius 43.5549
rwrist -6.48285
rhand -2.79783 -62.2884
rfingers 7.12502
rthumb -157.092 -89.0524
lclavicle 2.78299e-015 1.59028e-015
lhumerus -46.3712 21.3773 61.0525
lradius 41.7702
lwrist -6.27316
lhand -11.9153 -30.4261
lfingers 7.12502
lthumb 14.1386 -0.927123
rfemur -2.03338 11.7923 25.0512
rtibia 27.7068
rfoot -23.7272 -25.0438
rtoes -5.75651
lfemur -0.834547 -18.993 -26.1348
ltibia 31.1361
lfoot -34.5839 23.6116
ltoes -12.4359
118
root 7.57115 15.0141 42.3074 173.478 6.61409 183.122
lowerback 0.990812 -0.308997 -0.644055
upperback -2.87489 -0.348671 -3.64514
thorax -3.53517 -0.129888 -3.39279
lowerneck -7.54228 4.7888 7.7295
upperneck 40.4377 11.9704 2.37412
head 15.9554 8.72978 2.10445
rclavicle -3.97569e-015 4.29375e-014
rhumerus -56.4443 20.0659 -105.681
rradius 43.4828
rwrist -6.36392
rhand -2.67234 -62.6138
rfingers 7.12502
rthumb -156.972 -88.742
lclavicle -3.97569e-015 4.29375e-014
lhumerus -46.344 20.9319 61.1432
lradius 41.6708
lwrist -6.18763
lhand -12.2303 -30.3487
lfingers 7.12502
lthumb 13.8351 -0.828768
rfemur -2.09118 11.7963 24.9346
rtibia 27.6838
rfoot -23.5915 -24.9485
rtoes -6.36386
lfemur -0.811938 -18.987 -26.2524
ltibia 31.1344
lfoot -34.977 23.5951
ltoes -10.2527
